<?xml version="1.0" encoding="utf-8"?>
<svg version="1.1" id="Layer_1" x="0px" y="0px" viewBox="0 0 864 864" style="enable-background:new 0 0 864 864;" xmlns="http://www.w3.org/2000/svg" xmlns:bx="https://boxy-svg.com">
  <defs>
    <filter id="chalk" height="2" width="1.6" color-interpolation-filters="sRGB" y="-0.5" x="-0.3" bx:pinned="true">
      <title>chalk</title>
      <feTurbulence baseFrequency="50" seed="115" result="result1" numOctaves="1" type="turbulence"/>
      <feOffset result="result2" dx="-5" dy="-5" in="result1"/>
      <feDisplacementMap scale="1.5" yChannelSelector="G" in2="result1" xChannelSelector="R" in="SourceGraphic" result="displacement-map-0"/>
      <feGaussianBlur stdDeviation="0.1" in="displacement-map-0" result="gaussian-blur-0"/>
    </filter>
  </defs>
  <g style="filter: url(#chalk);">
    <g>
      <path d="M377.9,450.6c0.6,3.3,1.2,6.4,1.8,9.4c10.9,1.7,29.3,3.9,52.3,3.9c23,0,41.5-2.2,52.3-3.9c0.6-3,1.2-6.2,1.8-9.4 c-9.8,1.7-29.4,4.3-54.1,4.3C407.3,454.9,387.7,452.3,377.9,450.6z" style="fill: rgb(255, 255, 255);"/>
    </g>
    <g>
      <path d="M432,317.7c23.3,0,42.1-18.9,42.1-42.1c0-23.3-18.9-42.1-42.1-42.1s-42.1,18.9-42.1,42.1 C389.9,298.8,408.7,317.7,432,317.7z M402.3,273.2c1.3-16.4,15.6-28.7,32-27.4c16.4,1.3,28.7,15.6,27.4,32 c-1.3,16.4-15.6,28.7-32,27.4C413.3,304,401,289.6,402.3,273.2z" style="fill: rgb(255, 255, 255);"/>
    </g>
    <g>
      <path d="M432,325.2c27.4,0,49.6-22.3,49.6-49.6s-22.3-49.6-49.6-49.6s-49.6,22.3-49.6,49.6S404.6,325.2,432,325.2z M432,226.9 c26.8,0,48.6,21.8,48.6,48.6s-21.8,48.6-48.6,48.6s-48.6-21.8-48.6-48.6S405.2,226.9,432,226.9z" style="fill: rgb(255, 255, 255);"/>
    </g>
    <g>
      <path d="M432,82.1C207.7,82.1,25.8,264,25.8,488.3c0,111.1,44.6,211.8,116.9,285.2c6.5-3.4,13.7-5.3,21.3-5.3 c4.2,0,8.4,0.6,12.3,1.7c8.9-8.2,20.2-13.1,32.4-13.1c2,0,3.9,0.1,5.9,0.4c12.5-16,30.5-26.2,50.5-26.8 c16.1-26.5,43.6-43.9,74.9-43.9c11.7,0,22.8,2.4,33,6.9c8,0.5,17.6-7.9,22.8-16.3c7.8-12.7,2.1-37.4,0.4-45.1 c-1.1-3-1.8-4.5-1.8-4.5s0.5,1.1,1.5,3.2c-0.1-0.2-0.1-0.4-0.1-0.4l0.2,0.6c6.2,13.4,28.5,62.6,33.3,90.2c0.5,3.1,1,6.1,1.5,8.8 c1.7-0.5,3.8-28.7,5.5-29.1c1.2-4.4,4.1-16.2,6-21.5c15.4-43.3,12.2-22.5,15-29.5c2.4-6.1-1.5,29.4,3,61.7 c7.7-5,16.7-7.9,26.3-7.9c18.7,0,35,10.9,44.3,27.2c14.8-8.5,32-13.3,49.8-13.3c31.3,0,60.4,14.4,78.4,38.6 c14.3,0,29.4,5.5,42.4,15.4c4.1,3.2,7.9,6.6,11.2,10.4c77.3-73.9,125.4-178.1,125.4-293.5C838.2,264,656.3,82.1,432,82.1z M74.3,549.1c-1.9,0-3.5-1.6-3.5-3.5s1.6-3.5,3.5-3.5c1.9,0,3.5,1.6,3.5,3.5S76.2,549.1,74.3,549.1z M100.2,454 c-1.9,0-3.5-1.6-3.5-3.5c0-1.9,1.6-3.5,3.5-3.5s3.5,1.6,3.5,3.5C103.7,452.5,102.1,454,100.2,454z M120.4,648.4 c-1.9,0-3.5-1.6-3.5-3.5c0-1.9,1.6-3.5,3.5-3.5s3.5,1.6,3.5,3.5C123.9,646.8,122.4,648.4,120.4,648.4z M162.4,286.3 c-3.1,0-5.6-2.5-5.6-5.6s2.5-5.6,5.6-5.6s5.6,2.5,5.6,5.6S165.5,286.3,162.4,286.3z M170.1,494.6c-1.9,0-3.5-1.6-3.5-3.5 s1.6-3.5,3.5-3.5s3.5,1.6,3.5,3.5S172,494.6,170.1,494.6z M187.5,340.8c-3.1,0-5.6-2.5-5.6-5.6s2.5-5.6,5.6-5.6s5.6,2.5,5.6,5.6 S190.6,340.8,187.5,340.8z M531.5,159.7c1.9,0,3.5,1.6,3.5,3.5s-1.6,3.5-3.5,3.5c-1.9,0-3.5-1.6-3.5-3.5S529.5,159.7,531.5,159.7z M226,692.4c-1.9,0-3.5-1.6-3.5-3.5c0-1.9,1.6-3.5,3.5-3.5c1.9,0,3.5,1.6,3.5,3.5C229.5,690.8,227.9,692.4,226,692.4z M260.2,468 c-3.1,0-5.6-2.5-5.6-5.6c0-3.1,2.5-5.6,5.6-5.6s5.6,2.5,5.6,5.6C265.8,465.5,263.3,468,260.2,468z M263.7,233.8 c-1.9,0-3.5-1.6-3.5-3.5c0-1.9,1.6-3.5,3.5-3.5c1.9,0,3.5,1.6,3.5,3.5C267.2,232.3,265.7,233.8,263.7,233.8z M279.8,607.8 c-3.1,0-5.6-2.5-5.6-5.6s2.5-5.6,5.6-5.6s5.6,2.5,5.6,5.6S282.9,607.8,279.8,607.8z M294.5,331.7c-1.9,0-3.5-1.6-3.5-3.5 c0-1.9,1.6-3.5,3.5-3.5c1.9,0,3.5,1.6,3.5,3.5C298,330.1,296.4,331.7,294.5,331.7z M305,140.9c-3.1,0-5.6-2.5-5.6-5.6 s2.5-5.6,5.6-5.6s5.6,2.5,5.6,5.6S308.1,140.9,305,140.9z M352.1,506.6c-5,9.9-9.6,31.6-12.4,47.1c-0.9,4.8-7.1,5.1-8.3,0.4 c-3.9-15-8-38.4-5.6-64.2c4.1-44.2,39.3-60.8,39.3-60.8l10.9,56.9C375.9,486.1,360.3,490.2,352.1,506.6z M446.5,607.6 c-4.4,13.2-12.4,37.1-14.2,49.3c0,3.4-0.1,4.8-0.1,3.5c0-0.5-0.1-1-0.1-1.5c-0.1,0.5-0.1,1.1-0.1,1.5c-0.1,1.3-0.1-0.1-0.1-3.5 c-1.8-12.2-9.8-36.2-14.2-49.3c-4.9-14.6-13.3-41.7-11.9-67.4c1.3-25.7,3.5-28.5,3.5-28.5h7c-0.5,2.2-1.2,7-1.7,17.2 c-0.9,17.2,4.7,35.3,8,45.1c2.9,8.8,8.3,24.8,9.5,33c0,2.3,0,3.2,0.1,2.3c0-0.3,0-0.7,0.1-1c0,0.4,0.1,0.7,0.1,1 c0,0.9,0.1,0,0.1-2.3c1.2-8.2,6.6-24.2,9.5-33c3.2-9.8,8.9-27.9,8-45.1c-0.5-10.2-1.2-15-1.7-17.2h7c0,0,2.2,2.8,3.5,28.5 C459.7,565.9,451.3,593,446.5,607.6z M476.6,504.7c0,0-0.8,2.7-44.6,2.7s-44.6-2.7-44.6-2.7S356.7,383.3,359,292.1 c1.8-70.5,44.4-121,63.7-140.3c5.3-5.3,13.3-5.3,18.6,0c19.3,19.3,61.9,69.8,63.7,140.3C507.3,383.3,476.6,504.7,476.6,504.7z M497.2,660.9c0-1.9,1.6-3.5,3.5-3.5c1.9,0,3.5,1.6,3.5,3.5c0,1.9-1.6,3.5-3.5,3.5C498.8,664.4,497.2,662.9,497.2,660.9z M503.5,691.7c-1.9,0-3.5-1.6-3.5-3.5c0-1.9,1.6-3.5,3.5-3.5s3.5,1.6,3.5,3.5C507,690.1,505.4,691.7,503.5,691.7z M532.6,554.1 c-1.2,4.8-7.4,4.5-8.3-0.4c-2.8-15.5-7.4-37.2-12.4-47.1c-8.3-16.4-23.9-20.5-23.9-20.5l10.9-56.9c0,0,35.2,16.5,39.3,60.8 C540.6,515.7,536.5,539.1,532.6,554.1z M573.4,664.4c-1.9,0-3.5-1.6-3.5-3.5c0-1.9,1.6-3.5,3.5-3.5s3.5,1.6,3.5,3.5 C576.9,662.9,575.3,664.4,573.4,664.4z M579,307.9c-1.9,0-3.5-1.6-3.5-3.5s1.6-3.5,3.5-3.5s3.5,1.6,3.5,3.5S580.9,307.9,579,307.9 z M584.6,439.3c-1.9,0-3.5-1.6-3.5-3.5c0-1.9,1.6-3.5,3.5-3.5s3.5,1.6,3.5,3.5C588.1,437.8,586.5,439.3,584.6,439.3z M602.1,331.7 c-1.9,0-3.5-1.6-3.5-3.5c0-1.9,1.6-3.5,3.5-3.5c1.9,0,3.5,1.6,3.5,3.5C605.6,330.1,604,331.7,602.1,331.7z M620.2,533 c-1.9,0-3.5-1.6-3.5-3.5s1.6-3.5,3.5-3.5s3.5,1.6,3.5,3.5S622.2,533,620.2,533z M627.9,219.2c-3.1,0-5.6-2.5-5.6-5.6 s2.5-5.6,5.6-5.6s5.6,2.5,5.6,5.6S631,219.2,627.9,219.2z M660.1,364.5c-3.1,0-5.6-2.5-5.6-5.6s2.5-5.6,5.6-5.6s5.6,2.5,5.6,5.6 S663.2,364.5,660.1,364.5z M683.9,670.7c-3.1,0-5.6-2.5-5.6-5.6s2.5-5.6,5.6-5.6s5.6,2.5,5.6,5.6S686.9,670.7,683.9,670.7z M713.2,505.8c-3.1,0-5.6-2.5-5.6-5.6c0-3.1,2.5-5.6,5.6-5.6s5.6,2.5,5.6,5.6C718.8,503.2,716.3,505.8,713.2,505.8z M719.5,301.6 c-1.9,0-3.5-1.6-3.5-3.5s1.6-3.5,3.5-3.5s3.5,1.6,3.5,3.5S721.4,301.6,719.5,301.6z M770.5,584c-1.9,0-3.5-1.6-3.5-3.5 c0-1.9,1.6-3.5,3.5-3.5c1.9,0,3.5,1.6,3.5,3.5C774,582.5,772.5,584,770.5,584z M796.4,436.5c-1.9,0-3.5-1.6-3.5-3.5 s1.6-3.5,3.5-3.5c1.9,0,3.5,1.6,3.5,3.5S798.3,436.5,796.4,436.5z" style="fill: rgb(255, 255, 255);"/>
    </g>
  </g>
</svg>