<?xml version="1.0" encoding="utf-8"?>
<svg version="1.1" id="Layer_1" x="0px" y="0px" viewBox="0 0 205.4 76.7" style="enable-background:new 0 0 205.4 76.7;" xmlns="http://www.w3.org/2000/svg" xmlns:bx="https://boxy-svg.com">
  <defs>
    <filter id="chalk" height="2" width="1.6" color-interpolation-filters="sRGB" y="-0.5" x="-0.3" bx:pinned="true">
      <title>chalk</title>
      <feTurbulence baseFrequency="50" seed="115" result="result1" numOctaves="1" type="turbulence"/>
      <feOffset result="result2" dx="-5" dy="-5" in="result1"/>
      <feDisplacementMap scale="1.5" yChannelSelector="G" in2="result1" xChannelSelector="R" in="SourceGraphic" result="displacement-map-0"/>
      <feGaussianBlur stdDeviation="0.1" in="displacement-map-0" result="gaussian-blur-0"/>
    </filter>
    <bx:guide x="139.806" y="31.55" angle="90"/>
  </defs>
  <g style="filter: url(#chalk);" transform="matrix(0.92212, 0, 0, 0.92212, 7.995638, 2.97341)">
    <g>
      <g>
        <g>
          <path class="st0" d="M15.5,23.2c-0.4,0-0.5-0.2-0.3-0.5l2.1-2.7c0.2-0.3,0.7-0.5,1.1-0.5h35.7c0.4,0,0.5,0.3,0.3,0.6l-1.7,2.6 c-0.2,0.3-0.7,0.6-1,0.6L15.5,23.2z" style="fill: none; stroke: #00aed8; stroke-width: 3.25337px;"/>
        </g>
      </g>
    </g>
    <g>
      <g>
        <g>
          <path class="st0" d="M0.4,32.4c-0.4,0-0.5-0.2-0.3-0.5l2.1-2.7c0.2-0.3,0.7-0.5,1.1-0.5h45.6c0.4,0,0.6,0.3,0.5,0.6l-0.8,2.4 c-0.1,0.4-0.5,0.6-0.9,0.6L0.4,32.4z" style="fill: none; stroke: #00aed8; stroke-width: 3.25337px;"/>
        </g>
      </g>
    </g>
    <g>
      <g>
        <g>
          <path class="st0" d="M24.6,41.6c-0.4,0-0.5-0.3-0.3-0.6l1.4-2.5c0.2-0.3,0.6-0.6,1-0.6h20c0.4,0,0.6,0.3,0.6,0.7L47.1,41 c0,0.4-0.4,0.7-0.7,0.7L24.6,41.6z" style="fill: none; stroke: #00aed8; stroke-width: 3.25337px;"/>
        </g>
      </g>
    </g>
    <g>
      <g id="CXHf1q_3_">
        <g>
          <g>
            <path class="st0" d="M 128.4 21.4 C 122.1 23 117.8 24.2 111.6 25.8 C 110.1 26.2 110 26.3 108.7 24.8 C 107.2 23.1 106.1 22 104 21 C 97.7 17.9 91.6 18.8 85.9 22.5 C 79.1 26.9 75.6 33.4 75.7 41.5 C 75.8 49.5 81.3 56.1 89.2 57.2 C 96 58.1 101.7 55.7 106.2 50.6 C 107.1 49.5 107.9 48.3 108.9 46.9 C 105.3 46.9 100.8 46.9 89.6 46.9 C 87.5 46.9 87 45.6 87.7 43.9 C 89 40.8 91.4 35.6 92.8 33 C 93.1 32.4 93.8 31.4 95.3 31.4 C 100.4 31.4 115.275 31.55 127.775 31.55 C 127.575 34.25 122.499 39 127.327 52.249 C 128.047 54.226 127.3 53.3 122.9 59.1 C 115.7 68.6 106.3 74.5 94.4 76.1 C 84.6 77.4 75.5 75.5 67.5 69.5 C 60.1 63.9 55.9 56.5 54.8 47.3 C 53.5 36.4 56.7 26.6 63.3 18 C 70.4 8.7 79.8 2.8 91.3 0.7 C 100.7 -1 109.7 0.1 117.8 5.6 C 123.1 9.1 126.9 13.9 129.4 19.7 C 130 20.6 129.6 21.1 128.4 21.4 Z" style="fill: none; stroke: #00aed8; stroke-width: 3.25337px;"/>
          </g>
          <g>
            <path class="st0" d="M161.5,76.7c-9.1-0.2-17.4-2.8-24.4-8.8c-5.9-5.1-9.6-11.6-10.8-19.3c-1.8-11.3,1.3-21.3,8.1-30.2 c7.3-9.6,16.1-14.6,28-16.7c10.2-1.8,19.8-0.8,28.5,5.1c7.9,5.4,12.8,12.7,14.1,22.3c1.7,13.5-2.2,24.5-11.5,33.9 c-6.6,6.7-14.7,10.9-24,12.8C166.8,76.3,164.1,76.4,161.5,76.7z M185.3,36.3c-0.1-1.3-0.1-2.3-0.3-3.3 c-1.8-9.9-10.9-15.5-20.4-13.3c-9.3,2.1-15.3,8-17.5,17.4c-1.8,7.8,2,15.7,9.2,18.9c5.5,2.4,11,2.1,16.3-0.6 C180.5,51.3,184.8,44.9,185.3,36.3z" style="fill: none; stroke: #00aed8; stroke-width: 3.25337px;"/>
          </g>
        </g>
      </g>
    </g>
  </g>
</svg>