<?xml version="1.0" encoding="utf-8"?>
<svg width="256px" height="289px" viewBox="0 0 40 40" version="1.1" preserveAspectRatio="xMidYMid" xmlns="http://www.w3.org/2000/svg" xmlns:bx="https://boxy-svg.com">
  <defs>
    <filter id="chalk" height="2" width="1.6" color-interpolation-filters="sRGB" y="-0.5" x="-0.3" bx:pinned="true">
      <title>chalk</title>
      <feTurbulence baseFrequency="50" seed="115" result="result1" numOctaves="1" type="turbulence"/>
      <feOffset result="result2" dx="-5" dy="-5" in="result1"/>
      <feDisplacementMap scale="1.5" yChannelSelector="G" in2="result1" xChannelSelector="R" in="SourceGraphic" result="displacement-map-0"/>
      <feGaussianBlur stdDeviation="0.1" in="displacement-map-0" result="gaussian-blur-0"/>
    </filter>
  </defs>
  <g style="filter: none;" transform="matrix(0.206135, 0, 0, 0.206135, -17.306789, -21.183887)">
    <path d="M 178.004 288.464 C 175.582 288.464 173.321 287.818 171.222 286.687 L 149.745 273.93 C 146.515 272.154 148.13 271.508 149.099 271.185 C 153.459 269.732 154.266 269.409 158.788 266.825 C 159.272 266.502 159.918 266.664 160.402 266.987 L 176.874 276.837 C 177.52 277.16 178.327 277.16 178.811 276.837 L 243.243 239.535 C 243.889 239.212 244.212 238.566 244.212 237.758 L 244.212 163.315 C 244.212 162.507 243.889 161.861 243.243 161.539 L 178.811 124.398 C 178.165 124.075 177.358 124.075 176.874 124.398 L 112.442 161.539 C 111.796 161.861 111.473 162.669 111.473 163.315 L 111.473 237.758 C 111.473 238.404 111.796 239.212 112.442 239.535 L 130.044 249.708 C 139.571 254.552 145.546 248.901 145.546 243.249 L 145.546 169.774 C 145.546 168.805 146.353 167.836 147.484 167.836 L 155.719 167.836 C 156.688 167.836 157.657 168.644 157.657 169.774 L 157.657 243.249 C 157.657 256.006 150.713 263.434 138.602 263.434 C 134.888 263.434 131.981 263.434 123.746 259.397 L 106.79 249.708 C 102.592 247.286 100.008 242.764 100.008 237.92 L 100.008 163.476 C 100.008 158.632 102.592 154.11 106.79 151.688 L 171.222 114.386 C 175.259 112.125 180.749 112.125 184.786 114.386 L 249.218 151.688 C 253.416 154.11 256 158.632 256 163.476 L 256 237.92 C 256 242.764 253.416 247.286 249.218 249.708 L 184.786 287.01 C 182.687 287.979 180.265 288.464 178.004 288.464 L 178.004 288.464 Z M 197.866 237.274 C 169.607 237.274 163.793 224.355 163.793 213.374 C 163.793 212.406 164.601 211.437 165.731 211.437 L 174.128 211.437 C 175.097 211.437 175.905 212.083 175.905 213.051 C 177.197 221.61 180.911 225.809 198.028 225.809 C 211.592 225.809 217.406 222.74 217.406 215.474 C 217.406 211.275 215.791 208.207 194.637 206.108 C 177.035 204.331 166.054 200.456 166.054 186.407 C 166.054 173.327 177.035 165.576 195.444 165.576 C 216.114 165.576 226.287 172.681 227.579 188.183 C 227.579 188.668 227.418 189.152 227.095 189.636 C 226.772 189.959 226.287 190.282 225.803 190.282 L 217.406 190.282 C 216.598 190.282 215.791 189.636 215.629 188.829 C 213.692 179.948 208.686 177.041 195.444 177.041 C 180.588 177.041 178.811 182.208 178.811 186.084 C 178.811 190.767 180.911 192.22 200.934 194.804 C 220.797 197.388 230.163 201.102 230.163 214.989 C 230.001 229.2 218.375 237.274 197.866 237.274 L 197.866 237.274 Z" style="fill: none; stroke: #80bd01; filter: url(#chalk); stroke-width: 4.85119px;"/>
  </g>
</svg>