<?xml version="1.0" encoding="utf-8"?>
<svg viewBox="0 0 165 35" xmlns="http://www.w3.org/2000/svg" xmlns:bx="https://boxy-svg.com">
  <defs>
    <filter id="chalk" height="2" width="1.6" color-interpolation-filters="sRGB" y="-0.5" x="-0.3" bx:pinned="true">
      <title>chalk</title>
      <feTurbulence baseFrequency="50" seed="115" result="result1" numOctaves="1" type="turbulence"/>
      <feOffset result="result2" dx="-5" dy="-5" in="result1"/>
      <feDisplacementMap scale="1.5" yChannelSelector="G" in2="result1" xChannelSelector="R" in="SourceGraphic" result="displacement-map-0"/>
      <feGaussianBlur stdDeviation="0.1" in="displacement-map-0" result="gaussian-blur-0"/>
    </filter>
  </defs>
  <path style="fill: none; filter: url(#chalk); stroke: rgb(255, 255, 255);" d="M 22.67 11.12 C 22.67 11.12 13.836 13.657 13.665 16.889 C 13.482 20.37 18.697 23.308 22.67 23.844 C 29.163 24.72 39.609 22.509 40.677 16.889 C 42.007 9.9 30.835 2.749 22.67 2.469 C 13.709 2.162 1.751 9.119 1.529 16.889 C 1.299 24.983 13.418 31.711 22.67 32.836 C 37.008 34.579 69.023 21.962 82.177 16.719 C 94.408 11.844 126.513 1.25 139.92 2.299 C 149.636 3.059 163.764 8.267 163.997 16.719 C 164.238 25.471 149.973 33.518 139.92 32.666 C 131.776 31.976 122.132 23.683 123.673 16.719 C 124.817 11.553 133.876 9.111 139.92 9.594 C 144.416 9.953 150.712 12.806 150.685 16.719 C 150.66 20.598 139.92 23.675 139.92 23.675"/>
</svg>