<?xml version="1.0" encoding="utf-8"?>
<svg version="1.1" xmlns="http://www.w3.org/2000/svg" xmlns:xlink="http://www.w3.org/1999/xlink" x="0px" y="0px" viewBox="0 0 1000 1000" enable-background="new 0 0 1000 1000" xml:space="preserve">
  <defs>
    <filter id="chalk" height="2" width="1.6" color-interpolation-filters="sRGB" y="-0.5" x="-0.3" bx:pinned="true">
      <title>chalk</title>
      <feTurbulence baseFrequency="50" seed="115" result="result1" numOctaves="1" type="turbulence"/>
      <feOffset result="result2" dx="-5" dy="-5" in="result1"/>
      <feDisplacementMap scale="1.5" yChannelSelector="G" in2="result1" xChannelSelector="R" in="SourceGraphic" result="displacement-map-0"/>
      <feGaussianBlur stdDeviation="0.1" in="displacement-map-0" result="gaussian-blur-0"/>
    </filter>
  </defs>
  <g style="filter: url(#chalk);">
    <g transform="translate(0.000000,392.000000) scale(0.100000,-0.100000)">
      <path d="M7478.4,2643.7c-503.6-113-917.2-471-1083.8-945.9c-47.9-134-93.8-373.4-93.8-488.3c0-24.9,23-70.8,49.8-103.4c38.3-46,65.1-59.4,114.9-59.4c107.2,0,153.2,61.3,168.5,229.8c53.6,528.5,409.7,940.2,911.4,1045.5c488.3,103.4,1009.1-166.6,1258-651c174.2-342.7,149.4-721.9-72.7-1053.1c-149.4-226-367.7-398.3-624.3-495.9l-111-42.1l-3739.7-9.6L514.2,60.6L468.3,7c-59.4-70.9-59.4-155.1,1.9-214.5l46-47.9h3722.4h3724.3l168.5,49.8C8703.9-40.9,9129,428.2,9228.6,1002.7c114.9,679.8-358.1,1388.2-1080,1614.2C7970.5,2672.4,7662.2,2685.8,7478.4,2643.7z"/>
      <path d="M5004.5,1994.6c-44-13.4-118.7-46-166.6-74.7c-162.8-95.7-206.8-208.7-118.7-310.2c57.4-68.9,160.8-72.8,225.9-11.5c55.5,51.7,170.4,99.6,239.3,99.6c26.8,0,86.2-17.2,130.2-38.3c164.7-78.5,224-317.9,118.7-474.9c-97.6-147.4,78.5-137.9-2378.2-137.9H858.9l-55.5-55.5c-30.6-30.6-55.5-74.7-55.5-97.7c0-55.5,49.8-145.5,86.2-160.8c17.2-5.8,1030.2-11.5,2249.9-11.5h2219.3l111.1,42.1c149.4,55.5,291.1,197.2,350.4,350.4c53.6,139.8,59.4,360,11.5,484.4C5661.2,1914.1,5312.8,2092.2,5004.5,1994.6z"/>
      <path d="M217.4-919.8C123.6-937,70-1069.2,117.8-1159.2c51.7-95.7-176.2-91.9,4543.9-91.9c4383,0,4394.5,0,4499.9-38.3c139.8-53.6,281.5-189.6,350.4-335.1c44.1-95.7,53.6-139.8,53.6-268.1c0-136-7.7-170.4-63.2-281.5c-139.8-283.4-438.5-427-735.3-350.4c-275.7,70.8-457.6,277.6-494,570.6c-13.4,113-24.9,145.5-67,180c-67,57.5-151.3,57.5-210.6-3.8c-40.2-38.3-47.9-65.1-47.9-157c1.9-576.3,587.8-1039.7,1160.4-919.1c199.2,42.1,360,132.1,505.5,279.6c300.6,304.5,369.5,716.2,183.8,1102.9c-114.9,243.2-321.7,423.2-584,513.2L9086.9-916l-4413.7,1.9C2245.2-912.1,240.4-916,217.4-919.8z"/>
      <path d="M470.2-1948.1c-61.3-61.3-61.3-145.5-1.9-216.4l46-53.6l3121.2-9.6l3123.1-9.6l53.6-40.2c93.8-68.9,139.8-157,139.8-262.3c0-283.4-315.9-434.7-532.3-252.8c-74.7,63.2-141.7,76.6-210.6,40.2c-63.2-32.6-80.4-65.1-80.4-145.5c0-78.5,80.4-162.8,225.9-233.6c113-55.5,145.6-63.2,281.5-63.2c187.6,1.9,327.4,57.5,453.8,185.7c139.8,137.9,178.1,239.4,178.1,465.3c0,170.4-5.8,203-51.7,287.2c-57.4,111.1-183.8,235.5-306.4,300.6l-82.3,44l-3155.6,5.7l-3155.6,3.8L470.2-1948.1z"/>
      <path d="M828.2-2892.1c-30.6-11.5-80.4-107.2-80.4-157c0-21.1,21.1-63.2,46-91.9l46-53.6l2008.7-9.6l2006.7-9.6l120.6-65.1c134-72.8,229.8-176.2,294.9-319.8c67-143.6,63.2-381-9.6-526.6c-61.3-128.3-208.7-271.9-335.1-329.3c-139.8-63.2-379.1-59.4-522.8,7.7c-212.5,99.6-350.4,298.7-381.1,547.6c-11.5,86.2-28.7,137.9-55.5,164.7c-55.5,55.5-158.9,53.6-222.1-5.7c-130.2-122.6,0-564.9,239.4-804.2c377.2-377.2,997.6-379.1,1372.9-1.9c538.1,538.1,293,1445.7-444.2,1641c-76.6,21.1-484.5,26.8-2077.6,24.9C1745.4-2880.6,841.6-2886.3,828.2-2892.1z"/>
    </g>
  </g>
</svg>